<mxfile host="app.diagrams.net" modified="2023-10-28T09:22:09.914Z" agent="Mozilla/5.0 (Windows NT 10.0; Win64; x64) AppleWebKit/537.36 (KHTML, like Gecko) Chrome/118.0.0.0 Safari/537.36" etag="JzyAtwflIb-u2YXaXUDK" version="22.0.8" type="github">
  <diagram name="Trang-1" id="WOvSfj7Wc_SLSNNHOHkU">
    <mxGraphModel dx="3403" dy="1866" grid="0" gridSize="10" guides="1" tooltips="1" connect="1" arrows="1" fold="1" page="1" pageScale="1" pageWidth="2339" pageHeight="3300" math="0" shadow="0">
      <root>
        <mxCell id="0" />
        <mxCell id="1" parent="0" />
      </root>
    </mxGraphModel>
  </diagram>
</mxfile>
